<svg version="1.1" xmlns="http://www.w3.org/2000/svg" xmlns:xlink="http://www.w3.org/1999/xlink" width="18.17699" height="11.09375"><g transform="translate(-232.1321,-174.45312)"><g data-paper-data="{&quot;isPaintingLayer&quot;:true}" fill="none" fill-rule="nonzero" stroke="#001c48" stroke-linejoin="miter" stroke-miterlimit="10" stroke-dasharray="" stroke-dashoffset="0" style="mix-blend-mode: normal"><g data-paper-data="{&quot;origPos&quot;:null}" stroke-width="1" stroke-linecap="round"><path d="M249.80909,185.01563v-10"/><path d="M232.68682,185.04688h17.07353" data-paper-data="{&quot;origPos&quot;:null}"/><path d="M232.6321,174.95864v10.05882" data-paper-data="{&quot;origRot&quot;:0,&quot;origPos&quot;:null}"/><path d="M249.75436,174.95313h-17.07353" data-paper-data="{&quot;origPos&quot;:null,&quot;origRot&quot;:0}"/></g><g data-paper-data="{&quot;origPos&quot;:null}" stroke-width="2.5" stroke-linecap="butt"><path d="M245.25607,180.2792c-0.67422,-0.28393 -1.11619,-0.98132 -1.04221,-1.74787c0.0911,-0.94406 0.93027,-1.63552 1.87433,-1.54441c0.51352,0.04955 0.9523,0.32044 1.23105,0.70916" data-paper-data="{&quot;origPos&quot;:null,&quot;origRot&quot;:0}"/><path d="M246.28338,179.79726c0.67421,0.28393 1.11618,0.98131 1.0422,1.74787c-0.0911,0.94406 -0.93026,1.63553 -1.87432,1.54442c-0.51352,-0.04955 -0.9523,-0.32045 -1.23105,-0.70916" data-paper-data="{&quot;origRot&quot;:0,&quot;origPos&quot;:null}"/><path d="M237.66477,181.05223c-0.07776,0.47197 0.04096,0.97378 0.36903,1.37193c0.60314,0.73198 1.83657,0.83641 2.56854,0.23328c0.59435,-0.48973 0.82532,-1.29538 0.80122,-1.97288v-4.93401" data-paper-data="{&quot;origRot&quot;:0,&quot;origPos&quot;:null}"/></g><path d="M235.02474,183.05859v0" data-paper-data="{&quot;origPos&quot;:null}" stroke-width="2.5" stroke-linecap="round"/></g></g></svg>