<svg version="1.1" xmlns="http://www.w3.org/2000/svg" xmlns:xlink="http://www.w3.org/1999/xlink" width="77.11898" height="25.81127"><defs><linearGradient x1="248.199" y1="151.22845" x2="248.199" y2="165.84998" gradientUnits="userSpaceOnUse" id="color-1"><stop offset="0" stop-color="#00d8d8"/><stop offset="1" stop-color="#d3ff66"/></linearGradient><linearGradient x1="302.14515" y1="151.33383" x2="302.14515" y2="165.95536" gradientUnits="userSpaceOnUse" id="color-2"><stop offset="0" stop-color="#00d8d8"/><stop offset="1" stop-color="#d3ff66"/></linearGradient></defs><g transform="translate(-227.52617,-142.64409)"><g data-paper-data="{&quot;isPaintingLayer&quot;:true}" fill-rule="nonzero" stroke-linejoin="miter" stroke-miterlimit="10" stroke-dasharray="" stroke-dashoffset="0" style="mix-blend-mode: normal"><path d="M262.44603,151.89136c-0.68858,-1.03342 -1.8645,-1.71429 -3.19945,-1.71429c-2.12179,0 -3.84185,1.72005 -3.84185,3.84184c0,1.66872 1.06391,3.08895 2.55042,3.61939l2.55084,0.83283c1.48651,0.53044 2.55041,1.95068 2.55041,3.6194c0,2.12179 -1.72006,3.84184 -3.84184,3.84184c-1.33495,0 -2.51087,-0.68087 -3.19945,-1.71429" data-paper-data="{&quot;origPos&quot;:null}" fill="none" stroke="#82a4ff" stroke-width="5" stroke-linecap="butt"/><path d="M248.199,165.84998v-14.62153" data-paper-data="{&quot;origPos&quot;:null}" fill="url(#color-1)" stroke="#82a9ff" stroke-width="5" stroke-linecap="round"/><g data-paper-data="{&quot;origPos&quot;:null}" fill="none" stroke="#83a5ff" stroke-width="5" stroke-linecap="round"><path d="M234.64219,150.05421l3.21674,7.89563" data-paper-data="{&quot;origPos&quot;:null}"/><path d="M237.85893,165.84546v-9.60509" data-paper-data="{&quot;origPos&quot;:null}"/><path d="M241.10434,150.08289l-3.21674,7.89563" data-paper-data="{&quot;origPos&quot;:null,&quot;index&quot;:null}"/></g><g data-paper-data="{&quot;origPos&quot;:null}" fill="none" stroke="#82a3ff" stroke-width="5" stroke-linecap="round"><path d="M271.36137,160.60304h6.98719" data-paper-data="{&quot;origPos&quot;:null}"/><path d="M270.05127,165.85862v-15.5165" data-paper-data="{&quot;origPos&quot;:null}"/><path d="M279.24338,165.88317v-15.51649" data-paper-data="{&quot;origPos&quot;:null}"/></g><path d="M286.56378,165.23232c0.86732,0.45517 1.30708,0.70912 2.32521,0.70912c3.7593,0 6.80682,-3.46213 6.80682,-7.73289c0,-4.27076 -3.04752,-7.73289 -6.80682,-7.73289c-0.83106,0 -1.62733,0.1692 -2.36359,0.47892z" data-paper-data="{&quot;origPos&quot;:null}" fill="none" stroke="#82a3ff" stroke-width="5" stroke-linecap="butt"/><path d="M302.14515,165.95536v-14.62153" data-paper-data="{&quot;origPos&quot;:null}" fill="url(#color-2)" stroke="#82a9ff" stroke-width="5" stroke-linecap="round"/><path d="M229.82042,144.91803l0.63697,-1.27394" data-paper-data="{&quot;origPos&quot;:null}" fill="none" stroke="#fffb82" stroke-width="2" stroke-linecap="round"/><path d="M231.0962,144.92034l-0.63697,-1.27394" data-paper-data="{&quot;origPos&quot;:null,&quot;index&quot;:null}" fill="none" stroke="#fffb82" stroke-width="2" stroke-linecap="round"/><path d="M231.14495,144.99035l1.27394,0.63697" data-paper-data="{&quot;origPos&quot;:null,&quot;origRot&quot;:0}" fill="none" stroke="#fffb82" stroke-width="2" stroke-linecap="round"/><path d="M231.14264,146.26613l1.27394,-0.63697" data-paper-data="{&quot;origPos&quot;:null,&quot;index&quot;:null,&quot;origRot&quot;:0}" fill="none" stroke="#fffb82" stroke-width="2" stroke-linecap="round"/><path d="M231.12464,146.2675l-0.63697,1.27394" data-paper-data="{&quot;origPos&quot;:null,&quot;origRot&quot;:0}" fill="none" stroke="#fffb82" stroke-width="2" stroke-linecap="round"/><path d="M229.84886,146.26519l0.63697,1.27394" data-paper-data="{&quot;origPos&quot;:null,&quot;index&quot;:null,&quot;origRot&quot;:0}" fill="none" stroke="#fffb82" stroke-width="2" stroke-linecap="round"/><path d="M229.80011,146.19517l-1.27394,-0.63697" data-paper-data="{&quot;origPos&quot;:null,&quot;origRot&quot;:0}" fill="none" stroke="#fffb82" stroke-width="2" stroke-linecap="round"/><path d="M229.80242,144.91939l-1.27394,0.63697" data-paper-data="{&quot;origPos&quot;:null,&quot;index&quot;:null,&quot;origRot&quot;:0}" fill="none" stroke="#fffb82" stroke-width="2" stroke-linecap="round"/><path d="M235.68872,145.5368v-1.90529" data-paper-data="{&quot;origPos&quot;:null}" fill="none" stroke="#fffb82" stroke-width="1" stroke-linecap="round"/><path d="M234.74113,144.58921h1.90529" data-paper-data="{&quot;origPos&quot;:null,&quot;origRot&quot;:0}" fill="none" stroke="#fffb82" stroke-width="1" stroke-linecap="round"/></g></g></svg>